<svg xmlns="http://www.w3.org/2000/svg" x="0" y="0" width="702" height="252" style="
        width:702px;
        height:252px;
        background: transparent;
        fill: none;
">
        
        
        <svg xmlns="http://www.w3.org/2000/svg" class="role-diagram-draw-area" style="overflow: visible;"><g class="shapes-region" style="stroke: black; fill: none;"><g class="arrow-line"><path class="connection real" stroke-dasharray="" d="  M229,59 L173.5,201" style="stroke: rgb(0, 0, 0); stroke-width: 1; fill: none;"/></g><g class="composite-shape"><path class="real" d=" M157.5,201 C157.5,192.16 164.66,185 173.5,185 C182.34,185 189.5,192.16 189.5,201 C189.5,209.84 182.34,217 173.5,217 C164.66,217 157.5,209.84 157.5,201 Z" style="stroke-width: 1; stroke: rgb(0, 0, 0); fill: rgb(75, 58, 58);"/></g><g class="arrow-line"><path class="connection real" stroke-dasharray="" d="  M177.5,60 L287.5,60" style="stroke: rgb(0, 0, 0); stroke-width: 8; fill: none;"/></g><g class="arrow-line"><path class="connection real" stroke-dasharray="6 6" d="  M229,6.81 L229,170" style="stroke: rgb(0, 0, 0); stroke-width: 1; fill: none;"/></g><g class="arrow-line"><path class="connection real" stroke-dasharray="" d="  M318.5,89 L318.5,25" style="stroke: rgb(0, 0, 0); stroke-width: 3; fill: none;"/><g stroke="#000" transform="matrix(3.061616997868383e-16,1,-1,3.061616997868383e-16,318.5,21)" style="stroke: rgb(0, 0, 0); stroke-width: 3;"><path d=" M17.49,-5.26 Q7.94,-0.72 0,0 Q7.94,0.72 17.49,5.26"/></g></g><g class="arrow-line"><path class="connection real" stroke-dasharray="" d="  M547,53 L491.5,195" style="stroke: rgb(0, 0, 0); stroke-width: 1; fill: none;"/></g><g class="composite-shape"><path class="real" d=" M475.5,195 C475.5,186.16 482.66,179 491.5,179 C500.34,179 507.5,186.16 507.5,195 C507.5,203.84 500.34,211 491.5,211 C482.66,211 475.5,203.84 475.5,195 Z" style="stroke-width: 1; stroke: rgb(0, 0, 0); fill: rgb(0, 0, 0);"/></g><g class="arrow-line"><path class="connection real" stroke-dasharray="6 6" d="  M547,0.81 L547,164" style="stroke: rgb(0, 0, 0); stroke-width: 1; fill: none;"/></g><g class="arrow-line"><path class="connection real" stroke-dasharray="" d="  M521.5,116 C521.75,125 534.5,136 547.5,121" style="stroke: rgb(0, 0, 0); stroke-width: 1; fill: none;"/></g><g class="arrow-line"><path class="connection real" stroke-dasharray="" d="  M520.43,118.8 L491.5,195" style="stroke: rgb(0, 0, 0); stroke-width: 1; fill: none;"/><g stroke="none" fill="#000" transform="matrix(-0.35494379914052393,0.9348876400143984,-0.9348876400143984,-0.35494379914052393,521.5,116)" style="stroke: none; fill: rgb(0, 0, 0); stroke-width: 1;"><path d=" M8.93,-4.29 L0,0 L8.93,4.29 Z"/></g></g><g class="arrow-line"><path class="connection real" stroke-dasharray="" d="  M491.5,195 L491.86,139.49 L491.98,121.5" style="stroke: rgb(0, 0, 0); stroke-width: 1; fill: none;"/><g stroke="none" transform="matrix(-0.0064576733490433235,0.9999791490100767,-0.9999791490100767,-0.0064576733490433235,492.00000000000006,118.5)" style="stroke: none; stroke-width: 1; fill: rgb(0, 0, 0);" fill="#000"><path d=" M8.93,-4.29 L0,0 L8.93,4.29 Z"/></g></g><g class="arrow-line"><path class="connection real" stroke-dasharray="" d="  M491.5,195 L520,195.45" style="stroke: rgb(0, 0, 0); stroke-width: 1; fill: none;"/><g stroke="none" fill="#000" transform="matrix(-0.9998738758086451,-0.015881828465203925,0.015881828465203925,-0.9998738758086451,523,195.5)" style="stroke: none; fill: rgb(0, 0, 0); stroke-width: 1;"><path d=" M8.93,-4.29 L0,0 L8.93,4.29 Z"/></g></g><g/></g><g/><g/><g/></svg>
        <svg xmlns="http://www.w3.org/2000/svg" width="700" height="250" style="width:700px;height:250px;font-family:Asana-Math, Asana;background:transparent;"><g><g><text x="295.9921875" y="46" style="white-space:pre;stroke:none;fill:rgb(0, 0, 0);font-size:15px;font-family:Arial, Helvetica, sans-serif;font-weight:400;font-style:normal;dominant-baseline:text-before-edge;text-decoration:none solid rgb(0, 0, 0);">A</text></g></g><g><g><text x="210.9921875" y="223" style="white-space:pre;stroke:none;fill:rgb(0, 0, 0);font-size:15px;font-family:Arial, Helvetica, sans-serif;font-weight:400;font-style:normal;dominant-baseline:text-before-edge;text-decoration:none solid rgb(0, 0, 0);">Fig. 1</text></g></g><g><g><text x="529" y="131" style="white-space:pre;stroke:none;fill:rgb(0, 0, 0);font-size:15px;font-family:Arial, Helvetica, sans-serif;font-weight:400;font-style:normal;dominant-baseline:text-before-edge;text-decoration:none solid rgb(0, 0, 0);">θ</text></g></g><g><g><text x="578.9921875" y="222" style="white-space:pre;stroke:none;fill:rgb(0, 0, 0);font-size:15px;font-family:Arial, Helvetica, sans-serif;font-weight:400;font-style:normal;dominant-baseline:text-before-edge;text-decoration:none solid rgb(0, 0, 0);">Fig. 2</text></g></g><g><g><text x="511.9921875" y="142" style="white-space:pre;stroke:none;fill:rgb(0, 0, 0);font-size:15px;font-family:Arial, Helvetica, sans-serif;font-weight:700;font-style:normal;dominant-baseline:text-before-edge;text-decoration:none solid rgb(0, 0, 0);">T</text></g></g><g><g><text x="446.9921875" y="141" style="white-space:pre;stroke:none;fill:rgb(0, 0, 0);font-size:15px;font-family:Arial, Helvetica, sans-serif;font-weight:700;font-style:normal;dominant-baseline:text-before-edge;text-decoration:none solid rgb(0, 0, 0);">Tcosθ</text></g></g><g><g><text x="526" y="198.5" style="white-space:pre;stroke:none;fill:rgb(0, 0, 0);font-size:15px;font-family:Arial, Helvetica, sans-serif;font-weight:700;font-style:normal;dominant-baseline:text-before-edge;text-decoration:none solid rgb(0, 0, 0);">Tsinθ</text></g></g></svg>
</svg>
